<svg xmlns="http://www.w3.org/2000/svg" viewBox="0 0 512 512" width="512" height="512">
  <defs>
    <linearGradient id="bg" x1="0" y1="0" x2="1" y2="1">
      <stop offset="0" stop-color="#ff8fb4"/>
      <stop offset="1" stop-color="#c44ed9"/>
    </linearGradient>
  </defs>
  <rect width="512" height="512" rx="112" fill="url(#bg)"/>
  <ellipse cx="256" cy="398" rx="150" ry="24" fill="#fff" opacity=".9"/>
  <rect x="136" y="300" width="240" height="86" rx="18" fill="#fff"/>
  <rect x="136" y="300" width="240" height="26" rx="13" fill="#ffd9e6"/>
  <rect x="176" y="232" width="160" height="74" rx="16" fill="#ffe3ef"/>
  <rect x="176" y="232" width="160" height="22" rx="11" fill="#fff"/>
  <rect x="246" y="172" width="20" height="66" rx="6" fill="#ff7ba3"/>
  <path d="M256 128 c20 24 26 40 26 56 a26 26 0 0 1 -52 0 c0 -16 6 -32 26 -56 z" fill="#ffd24a"/>
  <circle cx="256" cy="196" r="9" fill="#fff7c2"/>
  <circle cx="186" cy="344" r="6" fill="#fff19a"/>
  <circle cx="232" cy="360" r="6" fill="#a0e7ff"/>
  <circle cx="288" cy="344" r="6" fill="#caffbf"/>
  <circle cx="330" cy="360" r="6" fill="#fff"/>
</svg>
